<?xml version="1.0" encoding="UTF-8"?><svg id="Calque_3" xmlns="http://www.w3.org/2000/svg" viewBox="0 0 1703.4 621.98"><defs><style>.cls-1{fill:#ba9755;}</style></defs><g><path class="cls-1" d="M1257.76,236.1c29.41,22.91,41.98,51.79,32.34,87.27-9.8,36.08-37.73,51.69-72.33,57.51-1.75,34.91-18.27,56.42-47.1,61.69-27.34,5-50.84-10.11-64.42-42.21-5.57,17.99-15.98,31.05-32.75,38.35-10.84,4.72-22.15,5.84-33.7,3.21-27.91-6.37-41.66-25.15-44.45-60.8-34.55-6.35-63.03-21.42-72.47-58.26-9.09-35.5,3.13-64.38,32.69-86.92-11.79-8.83-23.08-17.36-34.46-25.79-12.41-9.19-19.96-21.08-22.13-36.59-3.66-26.19,17.32-54.15,43.63-55.46,16.48-.83,27.1-8.48,34.72-21.97,6.77-11.99,13.3-24.12,20.1-36.09C1023.75,13.68,1065.28-3.01,1116.3,.44c14.25,.96,28.68,4.03,42.31,8.39,21.25,6.79,37.64,21.1,49.75,39.61,9.28,14.19,17.1,29.32,25.71,43.96,2.55,4.34,5.36,8.57,8.41,12.58,6.04,7.94,14.08,11.96,24.18,12.61,22.69,1.47,39.81,15.05,46.18,36.06,6.1,20.13-.99,41.33-18.73,55.08-11.78,9.13-23.8,17.95-36.34,27.38Zm-223.14-60.08c-9.07,15.38-7.2,30.26,4.58,39.55,12.26,9.68,29.51,7.08,39.6-5.95,5.7-7.36,7.61-7.67,15.3-2.48,2.09,1.41,4.1,3,6.32,4.18,8.19,4.35,15.21,.31,15.24-8.75,.05-15.39,0-30.79-.01-46.18,0-4.22,0-8.44,0-14.21,6.14,5.65,11.51,8.23,18.04,5.11,2.49-1.19,5.04-2.25,7.46-3.56,15.09-8.22,29.8-10.71,43.93,4,0-4.67,.26-8.04-.04-11.36-2.04-22.62-16.24-36.43-38.68-34.89-12.06,.83-23.82,5.82-35.78,8.67-2.58,.61-5.59,.64-8.14-.05-11.22-3.06-22.14-7.83-33.53-9.5-23.56-3.47-43.67,12.67-47.21,36.07-2.3,15.22,2.67,27.98,12.93,39.37Zm82.11,81.98c3.84,26.74,10.79,50.48,26.14,71.03,23.55,31.52,65.41,40.45,99.13,21.45,25.68-14.47,36.57-43.99,25.91-70.25-10.43-25.71-38.1-39.82-64.64-32.97-20.31,5.25-32.22,25.98-26.46,46.05,3.35,11.66,13.31,19.19,25.59,19.34,10.6,.13,19.62-6.31,22.85-16.53,3.06-9.67-.31-17.46-7.18-24.3-1.2-1.19-1.47-3.32-2.17-5.02,1.67-.24,3.54-1.08,4.97-.59,4.09,1.39,8.38,2.75,11.89,5.15,11.03,7.52,14.63,18.49,12.76,31.3-1.92,13.17-9.67,22.12-21.68,27.25-10.79,4.61-22.08,4.37-33.11,1.2-21.69-6.24-37.93-20.35-51.11-37.94-7.92-10.58-14.5-22.16-22.9-35.16Zm-21.83,.58c-1.24,2.28-2.5,4.55-3.72,6.83-13.75,25.74-31.23,48.17-56.92,63.11-12.53,7.28-25.83,10.51-40.34,6.92-15.18-3.76-26.32-16.6-26.75-31.17-.43-14.69,8.66-27.36,23.01-31.36,2.47-.69,5.44,.38,8.18,.64-1.34,1.91-2.41,4.11-4.06,5.7-9.51,9.09-9.3,19.29,.75,27.72,13.72,11.52,34.99,5.11,40.93-12.34,5.9-17.33-2-37.01-19.01-44.57-19.93-8.85-38.84-5.31-55.43,8.28-17.88,14.66-23.76,34.15-18.33,56.29,8.64,35.19,46.65,48.33,73.19,45.27,29.2-3.38,49.42-19.44,62.88-44.78,9.3-17.51,14.47-36.32,15.62-56.54Zm8.92-150.24c.34-.17,.68-.35,1.02-.52-1.48-4-2.61-8.17-4.5-11.96-16.83-33.61-63.28-37.67-87.52-7.01-7.56,9.56-12.73,21.16-18.06,32.28-6.33,13.22-10.98,27.26-17.72,40.25-3.1,5.99-8.7,11.44-14.45,15.14-10.57,6.8-22.86,3.33-28.55-6.95-1.18-2.13-1.09-4.96-1.59-7.47,2.25,.74,4.75,1.07,6.7,2.29,5.16,3.21,11,4.58,15.32,.4,3.39-3.27,5.94-8.68,6.4-13.38,.56-5.7-4.05-9.47-9.52-11.21-12.75-4.05-27.5,3.87-31.3,16.69-6.28,21.19,12.58,42.27,34.83,39.1,14.98-2.14,25.12-11.13,32.08-23.59,5.23-9.36,8.81-19.64,13.25-29.45,6.23-13.76,11.54-28.06,19.1-41.05,12.64-21.73,48.14-32.78,72.2-7.11,4.17,4.45,8.2,9.03,12.29,13.56Zm5.03-.12c4.53-4.81,8.79-9.9,13.64-14.37,9.36-8.63,19.87-14.47,33.36-13.7,21.39,1.23,35.54,12.8,44.27,31.22,6.66,14.06,11.86,28.81,17.71,43.25,5.04,12.43,10.87,24.31,21.58,33.05,13.5,11.02,31.32,11.35,44.34,.75,10.22-8.32,13.68-21.79,8.78-34.16-4.04-10.18-14.35-15.78-26.96-14.61-6.3,.59-11.06,3.49-12.65,9.83-1.51,6.06,.13,11.51,5.42,15.19,5.32,3.7,10.8,3.22,16.03-.47,1.73-1.22,3.43-2.48,5.35-3.88,2.61,6.87-1.76,14.49-9.3,17.81-9.04,3.97-21.39,1.12-28.15-8.6-6.34-9.11-10.91-19.5-15.87-29.52-8.12-16.38-14.31-33.98-24.27-49.11-12.59-19.11-32.58-25.77-54.98-21.45-20.89,4.03-33.2,18.03-38.29,38.75Zm3.33,209.56c.55-.14,.2-.12-.07,.05-.13,.08-.13,.42-.14,.65-.54,23.77,.97,47.27,9.71,69.72,4.05,10.4,9.96,19.64,18.94,26.6,20.1,15.57,47.21,8.26,54.6-14.7,5.96-18.54-7.98-36.47-25.52-32.72-5.29,1.13-10.02,3.92-9.94,9.76,.05,3.57,1.81,8.36,4.48,10.36,4.48,3.35,9.52,1.61,13.47-2.61,.93-.99,2.62-1.26,3.96-1.86,.6,1.59,1.77,3.21,1.69,4.76-.47,8.94-9.9,17.24-19.29,15.45-6.17-1.18-13.19-4.08-17.3-8.54-6.71-7.29-12.79-15.88-16.56-24.98-6.99-16.87-12.12-34.52-18.05-51.92Zm-80.04,64.69c1.09,.71,2.41,1.21,3.21,2.15,3.77,4.42,8.81,6.19,13.37,2.99,2.75-1.93,4.82-6.7,4.87-10.23,.08-6.1-4.78-8.99-10.4-10.07-9.61-1.85-19.65,3.37-23.96,12.27-8.71,18.02,5.18,41.13,25.87,43.05,17.93,1.66,33.49-7.99,43.07-27.18,11.94-23.92,13.53-49.7,12.98-75.79-.01-.5-.64-.99-1.05-1.59-2.98,10.45-5.39,20.49-8.74,30.22-3.35,9.72-6.71,19.64-11.78,28.5-4.56,7.99-10.56,15.7-17.6,21.52-4.34,3.59-11.94,5.01-17.85,4.55-10.32-.81-16.75-12.58-11.99-20.4ZM1187.6,55.43c-10.66-14.12-24.85-19.44-41.96-17.62-18.11,1.93-33.24,16.34-38.67,37.15-7.85-26.18-25.58-37.96-51.96-37.34-13.54,.32-28.42,8.69-32.71,18.91,16.33-8.36,32.55-9.39,49.15-3.62,16.74,5.82,28.36,17.12,35.39,34.4,6.8-16.81,17.52-28.17,33.42-34.33,16.08-6.24,31.76-4.25,47.34,2.45Zm-40.15,120.16c-9.62,.06-15.75,3.41-17.31,10.34-2.41,10.73-.65,20.57,8.03,28.24,8.54,7.56,18.37,9.09,28.81,5.04,2.65-1.03,5.52-3.72,6.54-6.33,7.08-18.01-6.66-37.43-26.07-37.3Zm8.08,106.47c7.73-37.62,30.48-54.87,68.67-51.43-8.18-9.94-32.89-13.44-49.84-2.71-18.38,11.63-26.27,33.37-18.83,54.14Zm49.73-127.4c-9.95,16.3-3.62,40.71,12.8,54.03,14.8,11.99,40.44,12.87,51.82,1.85-39.28,3.42-63.24-24.58-64.62-55.87Zm-148.19,127.17c8.71-15.47,1.45-39.39-14.73-51.61-16.65-12.57-42.45-11.2-53.91,1,17.02-2.9,32.26-.34,45.72,9.58,13.66,10.07,20.95,23.86,22.92,41.02Zm-114.32-71.5c16.98,12.85,42.7,9.67,57.77-6.26,12.58-13.29,16.69-37.6,8.1-47.94-4.12,37.76-32.39,57.57-65.87,54.21Zm174.38,31.9c-.2-5.71-4.97-10.21-10.77-10.14-6.28,.07-10.52,4.71-10.18,11.15,.31,5.97,4.86,10.09,10.87,9.84,5.68-.24,10.28-5.19,10.08-10.85Zm22.6-83.34c3.53,5.75,7.63,7.24,12.35,5.2,4.38-1.9,6.35-5.58,4.42-11.5-5.45,2.05-10.62,3.99-16.77,6.3Z"/><path class="cls-1" d="M1037.8,142.77c8.14-6.8,17.23-7.67,26.98-2.36,2.61,1.42,5.42,2.49,8.03,3.9,8.08,4.36,16.08,7.71,24.22-2.92v50.54c-5.88-6.6-10.57-12.15-15.62-17.35-1.27-1.31-3.81-2.35-5.56-2.1-20.04,2.82-29.3-3.56-33.56-23.05-.49-2.25-2.72-4.11-4.5-6.66Zm35.71,15.99c-5.81-2.16-10.97-4.08-16.55-6.16-1.6,5.79,.22,9.64,4.53,11.52,4.68,2.05,8.89,.59,12.02-5.36Z"/></g><path class="cls-1" d="M430.35,414.14h45v9h-213.77v-9h45V213.31H173.83v200.83h45v9H5.06v-9H50.07V47.92L0,18.1H223.89l-50.07,29.81V203.18h132.76V47.92l-50.07-29.81h223.89l-50.07,29.81V414.14Z"/><path class="cls-1" d="M676.75,27.1V207.12c35.44-1.69,74.82-31.5,95.63-74.25h.56v156.95h-.56c-21.38-43.88-59.07-73.13-95.63-74.82v199.14c66.38-1.13,123.2-33.75,176.08-131.64h.56v140.64H507.99v-9h45V48.48l-50.07-30.38h350.47V158.74h-.56c-52.88-96.76-109.7-131.07-176.08-131.63Z"/><path class="cls-1" d="M1703.4,252.12v171.01h-348.22v-9h45V48.48l-50.07-30.38h223.89l-50.07,30.38V414.14h4.5c69.19,0,131.64-54.01,174.39-162.02h.56Z"/><g><path class="cls-1" d="M342.93,499.73l-4.76,1.59-29.37,83.35h-3.97l-29.05-83.35-4.76-1.59h-5.4v-3.97h31.28v3.97h-8.73l-1.59,2.38,22.23,65.09,22.54-65.09-1.59-2.38h-8.25v-3.97h26.99v3.97h-5.56Z"/><path class="cls-1" d="M350.06,583.08v-3.97h3.97l3.18-1.59v-42.07h-7.94c3.17-6.35,11.91-10.32,15.87-10.32v53.98h6.35v3.97h-21.43Zm10.32-74.62c-3.49,0-6.35-2.86-6.35-6.35s2.86-6.35,6.35-6.35,6.35,2.86,6.35,6.35-2.86,6.35-6.35,6.35Z"/><path class="cls-1" d="M422.29,583.08v-3.97h3.97l3.18-1.59v-28.58c0-11.11-7.94-15.87-14.29-15.87h-5.56l-9.53,4.76v41.28h6.35v3.97h-21.43v-3.97h3.97l3.18-1.59v-42.07h-7.94c3.17-6.35,11.91-9.53,15.87-9.53v8.73c3.18-3.18,9.53-7.94,15.08-9.53h.79c9.52,0,21.43,7.14,21.43,20.64v33.34h6.35v3.97h-21.43Z"/><path class="cls-1" d="M471.5,584.67c-4.76,0-10.32-3.18-11.91-11.11l.79-1.59v-39.69h-7.94c3.18-7.14,8.73-11.91,17.47-14.29l-2.38,9.53h19.85v5.56h-19.05v37.31c0,4.76,3.17,7.14,7.14,7.14h13.49c-5.56,5.56-12.7,7.14-17.46,7.14Z"/><path class="cls-1" d="M531.03,585.46c-2.38,0-5.56-3.97-6.35-9.53-3.97,3.97-10.32,8.73-15.87,8.73s-13.49-4.76-13.49-15.88v-1.59c3.18-3.17,12.7-10.32,22.23-13.49l7.14-2.38,.79-.79v-5.56c0-6.35-3.17-13.49-12.7-13.49l-7.94,3.97v9.52h-9.52c2.38-9.52,11.11-17.46,21.43-19.85h.79c9.53,1.59,15.88,7.94,15.88,17.46v30.96c0,3.17,1.59,4.76,4.76,4.76h6.35c-3.97,4.76-9.52,7.14-13.49,7.14Zm-5.56-27.78h-7.94l-12.7,6.35-1.59,3.17c0,7.94,5.56,10.32,9.52,10.32h3.18l9.52-4.76v-15.08Z"/><path class="cls-1" d="M566.74,621.98h-8.73c-4.76-3.97-7.14-8.73-7.14-15.08,0-7.94,4.76-12.7,11.11-17.46l-11.11-11.11,15.88-7.94c-8.73-3.18-15.08-8.73-15.08-19.05,0-14.29,14.29-23.81,23.02-26.2,3.97,.48,6.35,1.59,8.26,2.38h20.32v4.76h-13.49c4.76,3.18,7.14,8.73,7.14,15.08,0,12.7-7.94,19.84-22.23,24.61l-14.29,4.76,6.35,6.35h25.4c7.94,0,12.7,4.76,12.7,11.91,0,11.91-14.29,26.99-38.1,26.99Zm22.23-30.96h-26.2l-3.97,7.94v5.56c0,7.94,3.17,11.11,11.11,11.11h14.29c6.35-3.97,12.7-10.32,12.7-16.67,0-4.76-1.59-7.94-7.94-7.94Zm-19.05-60.33c-4.76,3.18-9.53,9.53-9.53,18.26,0,11.91,8.73,18.26,18.26,18.26,6.35-3.97,9.52-11.11,9.52-18.26,0-12.7-10.32-18.26-18.26-18.26Z"/><path class="cls-1" d="M652.46,546.57l-33.34,11.11c1.59,9.52,6.35,15.88,13.49,19.85h12.7l9.52-3.18v2.38c-4.76,4.76-12.7,7.94-22.23,7.94h-3.97c-9.52-3.97-18.26-15.08-18.26-27.78,0-17.46,11.91-26.99,22.23-31.75h.79c12.7,0,22.23,7.94,23.02,17.46l-3.97,3.97Zm-20.64-16.67c-7.14,3.97-12.7,12.7-12.7,22.23l26.2-6.35,3.17-3.18c-1.59-7.14-8.73-12.7-16.67-12.7Z"/><path class="cls-1" d="M715.96,583.88h-18.26l-4.76-16.67,3.97-1.27,2.38,8.41c4.76,3.97,10.32,5.56,16.67,5.56,5.56-2.38,7.94-6.35,7.94-11.11,0-5.56-4.76-8.73-13.49-11.91-8.73-3.17-14.29-6.35-14.29-13.49,0-7.94,7.14-13.49,15.08-16.67h18.26v15.08h-3.97v-7.14c-3.97-3.18-8.73-3.97-14.29-3.97-3.97,1.59-7.14,4.76-7.14,9.53,0,5.56,3.97,7.14,12.7,10.32,8.73,3.18,15.08,7.14,15.08,15.08,0,8.73-6.35,14.29-15.88,18.26Z"/><path class="cls-1" d="M777.86,583.08h-18.26v33.34h7.94v3.97h-23.02v-3.97h3.97l3.18-1.59v-80.17h-7.94c3.18-6.35,11.91-9.53,15.88-9.53v7.94c3.97-3.18,11.91-7.14,15.87-7.94h.79c13.49,2.38,25.4,14.29,25.4,27.78,0,15.87-11.91,25.4-23.81,30.16Zm-1.59-50.01h-7.94l-8.73,2.86v38.42c4.76,3.18,11.91,3.97,16.67,3.97h3.18c7.94-4.76,13.49-11.12,13.49-23.02,0-11.11-7.14-19.05-16.67-22.23Z"/><path class="cls-1" d="M842.95,585.46h-.79c-13.49,0-30.96-8.73-30.96-28.58,0-13.49,10.32-27.78,23.82-31.75h.79c13.49,0,30.96,8.73,30.96,28.58,0,13.49-10.32,27.78-23.81,31.75Zm-9.52-55.57c-7.94,3.97-13.49,13.49-13.49,25.4,0,15.88,14.29,25.4,24.61,25.4,7.94-3.97,13.49-13.49,13.49-25.4,0-15.87-14.29-25.4-24.61-25.4Z"/><path class="cls-1" d="M914.38,535.45l-3.97,3.97-4.76-4.76c-3.97,0-11.91,5.56-11.91,15.08v29.37h9.53v3.97h-24.61v-3.97h3.97l3.18-1.59v-42.07h-7.94c3.17-6.35,11.91-10.32,15.87-10.32v15.08c3.18-7.14,10.32-12.7,16.67-15.08l3.97,3.97c.79,.79,1.59,1.91,1.59,3.18s-.79,2.38-1.59,3.18Z"/><path class="cls-1" d="M938.98,584.67c-4.76,0-10.32-3.18-11.91-11.11l.79-1.59v-39.69h-7.94c3.18-7.14,8.73-11.91,17.47-14.29l-2.38,9.53h19.85v5.56h-19.05v37.31c0,4.76,3.17,7.14,7.14,7.14h13.49c-5.56,5.56-12.7,7.14-17.46,7.14Z"/><path class="cls-1" d="M1021.53,583.08h-26.2v-90.49h-7.94c3.18-6.35,11.91-9.52,15.88-9.52v50.01c3.97-3.18,11.91-7.14,15.87-7.94h.79c13.49,2.38,25.4,14.29,25.4,27.78,0,15.87-11.91,25.4-23.81,30.16Zm-1.59-50.01h-7.94l-8.73,2.86v38.42c4.76,3.18,11.91,3.97,16.67,3.97h3.18c7.94-4.76,13.49-11.12,13.49-23.02,0-11.11-7.14-19.05-16.67-22.23Z"/><path class="cls-1" d="M1092.96,535.45l-3.97,3.97-4.76-4.76c-3.97,0-11.91,5.56-11.91,15.08v29.37h9.52v3.97h-24.61v-3.97h3.97l3.18-1.59v-42.07h-7.94c3.18-6.35,11.91-10.32,15.88-10.32v15.08c3.17-7.14,10.32-12.7,16.67-15.08l3.97,3.97c.79,.79,1.59,1.91,1.59,3.18s-.79,2.38-1.59,3.18Z"/><path class="cls-1" d="M1134.23,585.46c-2.38,0-5.56-3.97-6.35-9.53-3.97,3.97-10.32,8.73-15.87,8.73s-13.49-4.76-13.49-15.88v-1.59c3.18-3.17,12.7-10.32,22.23-13.49l7.14-2.38,.79-.79v-5.56c0-6.35-3.17-13.49-12.7-13.49l-7.94,3.97v9.52h-9.52c2.38-9.52,11.11-17.46,21.43-19.85h.79c9.53,1.59,15.88,7.94,15.88,17.46v30.96c0,3.17,1.59,4.76,4.76,4.76h6.35c-3.97,4.76-9.52,7.14-13.49,7.14Zm-5.56-27.78h-7.94l-12.7,6.35-1.59,3.17c0,7.94,5.56,10.32,9.52,10.32h3.18l9.52-4.76v-15.08Z"/><path class="cls-1" d="M1192.17,583.08v-3.97h3.97l3.18-1.59v-28.58c0-11.11-7.94-15.87-14.29-15.87h-5.56l-9.52,4.76v41.28h6.35v3.97h-21.43v-3.97h3.97l3.18-1.59v-42.07h-7.94c3.18-6.35,11.91-9.53,15.88-9.53v8.73c3.17-3.18,9.52-7.94,15.08-9.53h.79c9.53,0,21.43,7.14,21.43,20.64v33.34h6.35v3.97h-21.43Z"/><path class="cls-1" d="M1268.37,585.46h-3.97v-8.73c-3.97,3.17-10.32,6.35-15.88,7.94h-.79c-15.87-3.18-25.4-14.29-25.4-26.99,0-15.88,11.91-25.4,23.82-30.16h18.26v-34.93h-7.94c3.17-6.35,11.91-9.52,15.87-9.52v93.67l1.59,.79,7.14-2.38v3.97l-12.7,6.35Zm-3.97-49.22c-4.76-3.17-11.91-3.97-16.67-3.97h-3.17c-7.94,4.76-13.49,11.11-13.49,23.02,0,10.32,7.14,18.26,16.67,21.43h7.94l8.73-2.86v-37.63Z"/><path class="cls-1" d="M1292.17,583.08v-3.97h3.97l3.18-1.59v-42.07h-7.94c3.17-6.35,11.91-10.32,15.87-10.32v53.98h6.35v3.97h-21.43Zm10.32-74.62c-3.49,0-6.35-2.86-6.35-6.35s2.86-6.35,6.35-6.35,6.35,2.86,6.35,6.35-2.86,6.35-6.35,6.35Z"/><path class="cls-1" d="M1364.4,583.08v-3.97h3.97l3.18-1.59v-28.58c0-11.11-7.94-15.87-14.29-15.87h-5.56l-9.53,4.76v41.28h6.35v3.97h-21.43v-3.97h3.97l3.18-1.59v-42.07h-7.94c3.17-6.35,11.91-9.53,15.87-9.53v8.73c3.18-3.18,9.53-7.94,15.08-9.53h.79c9.52,0,21.43,7.14,21.43,20.64v33.34h6.35v3.97h-21.43Z"/><path class="cls-1" d="M1412.02,621.98h-8.73c-4.76-3.97-7.14-8.73-7.14-15.08,0-7.94,4.76-12.7,11.11-17.46l-11.11-11.11,15.88-7.94c-8.73-3.18-15.08-8.73-15.08-19.05,0-14.29,14.29-23.81,23.02-26.2,3.97,.48,6.35,1.59,8.26,2.38h20.32v4.76h-13.49c4.76,3.18,7.14,8.73,7.14,15.08,0,12.7-7.94,19.84-22.23,24.61l-14.29,4.76,6.35,6.35h25.4c7.94,0,12.7,4.76,12.7,11.91,0,11.91-14.29,26.99-38.1,26.99Zm22.23-30.96h-26.2l-3.97,7.94v5.56c0,7.94,3.17,11.11,11.11,11.11h14.29c6.35-3.97,12.7-10.32,12.7-16.67,0-4.76-1.59-7.94-7.94-7.94Zm-19.05-60.33c-4.76,3.18-9.53,9.53-9.53,18.26,0,11.91,8.73,18.26,18.26,18.26,6.35-3.97,9.52-11.11,9.52-18.26,0-12.7-10.32-18.26-18.26-18.26Z"/></g></svg>